<svg width="64" height="64" viewBox="0 0 64 64" fill="none" xmlns="http://www.w3.org/2000/svg">
<g clip-path="url(#clip0_204_208)">
<path d="M39.1147 64C28.8294 64 20.6214 55.896 20.6214 45.4027C20.6066 40.7562 22.3302 36.2722 25.4534 32.832L12.8827 45.4027L6.2854 38.8053L20.4694 24.7787C22.3894 22.8587 23.3761 20.3627 23.3761 17.6107V0H32.6747V17.6107C32.6747 23.0133 30.7547 27.584 27.0134 31.3253L26.5974 31.7413C30.0192 28.6227 34.485 26.8988 39.1147 26.9093C49.6614 26.9093 57.7147 35.272 57.7147 45.4027C57.7257 47.8482 57.252 50.2717 56.3211 52.5331C55.3902 54.7946 54.0205 56.8492 52.2912 58.5783C50.5618 60.3075 48.507 61.6769 46.2454 62.6074C43.9838 63.538 41.5603 64.0113 39.1147 64V64ZM39.1147 35.4293C33.4534 35.4293 29.0374 40.104 29.0374 45.4027C29.0374 50.856 33.5041 55.4827 39.1174 55.4827C41.8032 55.4926 44.3833 54.437 46.2919 52.5474C48.2005 50.6578 49.2818 48.0884 49.2987 45.4027C49.2987 39.896 44.7254 35.4293 39.1147 35.4293Z" fill="#01FF95"/>
</g>
<defs>
<clipPath id="clip0_204_208">
<rect width="64" height="64" fill="white"/>
</clipPath>
</defs>
</svg>
