<svg width="64" height="64" viewBox="0 0 64 64" fill="none" xmlns="http://www.w3.org/2000/svg">
<g clip-path="url(#clip0_204_189)">
<path d="M64 33C64 15.328 49.672 1 32 1C14.328 1 0 15.328 0 33C0 48.9733 11.7013 62.2107 27 64.6107V42.2507H18.8747V32.9973H27V25.952C27 17.9333 31.7787 13.5013 39.088 13.5013C42.5867 13.5013 46.2507 14.128 46.2507 14.128V22.0027H42.2133C38.2373 22.0027 36.9973 24.4693 36.9973 27V33H45.872L44.4533 42.2533H36.9973V64.6133C52.2987 62.2107 64 48.9707 64 33Z" fill="#1877F2"/>
</g>
<defs>
<clipPath id="clip0_204_189">
<rect width="64" height="64" fill="white"/>
</clipPath>
</defs>
</svg>
