<svg width="64" height="64" viewBox="0 0 64 64" fill="none" xmlns="http://www.w3.org/2000/svg">
<path d="M3.13333 32.6C2.99733 32.6 2.88267 32.7227 2.864 32.8667L2.24267 38.6107L2.864 44.224C2.88267 44.3787 2.99733 44.4854 3.13333 44.4854C3.26667 44.4854 3.37333 44.3787 3.39733 44.224L4.07733 38.6107L3.35733 32.8667C3.35733 32.7147 3.23733 32.6 3.11733 32.6H3.13333ZM0.72 34.808C0.56 34.808 0.477333 34.9067 0.442667 35.0587L0 38.6107L0.44 42.0987C0.44 42.2454 0.56 42.3494 0.68 42.3494C0.8 42.3494 0.917333 42.2294 0.957333 42.072L1.51733 38.5547L0.957333 34.9974C0.957333 34.8347 0.84 34.7574 0.717333 34.7574L0.72 34.808ZM5.59733 31.48C5.43467 31.48 5.27733 31.6 5.27733 31.7574L4.71733 38.592L5.31733 45.1467C5.31733 45.3067 5.43733 45.4667 5.63467 45.4667C5.79733 45.4667 5.91467 45.304 5.95733 45.1467L6.63467 38.5494L5.95733 31.7547C5.91467 31.5947 5.79467 31.4347 5.63467 31.4347L5.59733 31.48ZM8.15467 31.1974C7.95467 31.1974 7.79467 31.3574 7.75467 31.5574L7.24 38.5974L7.8 45.3814C7.84267 45.5867 8 45.7494 8.19733 45.7494C8.39733 45.7494 8.55733 45.5867 8.59733 45.3494L9.23733 38.5974L8.59733 31.6027C8.59733 31.4027 8.43733 31.2427 8.23733 31.2427L8.15467 31.1974V31.1974ZM11.2347 32.1574C11.2213 31.9174 11.0347 31.76 10.8107 31.76C10.5707 31.76 10.3893 31.92 10.3733 32.1574L9.79467 38.6374L10.328 45.472C10.328 45.712 10.528 45.8907 10.752 45.8907C10.9493 45.8907 11.1467 45.7094 11.1467 45.4694L11.752 38.6347L11.1467 32.1174L11.2347 32.1574V32.1574ZM13.392 27.6C13.1227 27.6 12.912 27.84 12.912 28.0827L12.352 38.6347L12.8507 45.4694C12.8507 45.7094 13.064 45.9067 13.3307 45.9067C13.5813 45.9067 13.7947 45.6667 13.8107 45.4267L14.368 38.592L13.8107 28C13.7893 27.7227 13.576 27.52 13.3307 27.52L13.392 27.6ZM15.888 25.0827C15.608 25.0827 15.368 25.3227 15.3467 25.6L14.8667 38.592L15.3067 45.3867C15.3067 45.7067 15.5467 45.944 15.8267 45.944C16.104 45.944 16.344 45.7067 16.3867 45.3867L16.9013 38.592L16.3893 25.6427C16.3467 25.3227 16.1093 25.0827 15.8293 25.0827H15.888ZM18.4667 23.8854C18.144 23.8854 17.904 24.1227 17.8667 24.4427L17.4267 38.5094L17.8667 45.2294C17.904 45.5467 18.144 45.8294 18.4667 45.8294C18.784 45.8294 19.0667 45.5494 19.0667 45.2294L19.5867 38.5094L19.064 24.4427C19.064 24.1227 18.784 23.8427 18.464 23.8427L18.4667 23.8854ZM21.784 23.9627C21.784 23.6027 21.504 23.3227 21.144 23.3227C20.8267 23.3227 20.504 23.6027 20.504 23.9627L20.1067 38.472L20.504 45.1467C20.5467 45.5067 20.8267 45.7867 21.1867 45.7867C21.5467 45.7867 21.8267 45.5067 21.8267 45.1467L22.264 38.472L21.8267 23.9227L21.784 23.9627V23.9627ZM23.7813 23.6054C23.4213 23.6054 23.1013 23.9227 23.1013 24.2827L22.7013 38.4747L23.1013 45.0694C23.1013 45.4694 23.4213 45.7494 23.7813 45.7494C24.1413 45.7494 24.4613 45.4294 24.4613 45.0294L24.8613 38.432L24.4213 24.28C24.4213 23.8854 24.1013 23.56 23.6987 23.56L23.7813 23.6054ZM26.3787 24.0027C25.9413 24.0027 25.6213 24.3627 25.6213 24.7627L25.3467 38.4774L25.7067 45.0747C25.7067 45.472 26.024 45.8134 26.464 45.8134C26.8613 45.8134 27.1867 45.4934 27.2213 45.0534L27.544 38.5387L27.184 24.9067C27.152 24.4694 26.824 24.1467 26.424 24.1467L26.3787 24.0027ZM29.5813 21.6267C29.4613 21.5494 29.3013 21.5094 29.1413 21.5094C28.9813 21.5094 28.824 21.5494 28.7013 21.6267C28.4613 21.7707 28.304 22.0267 28.304 22.3067V22.4694L28.0267 38.5974L28.3333 45.128V45.1494C28.3547 45.3094 28.4133 45.5094 28.5307 45.6294C28.6853 45.792 28.9093 45.9067 29.1547 45.9067C29.368 45.9067 29.576 45.7894 29.712 45.6667C29.8667 45.5067 29.9547 45.3067 29.9547 45.0667L29.9947 44.4267L30.3067 38.552L29.9467 22.3227C29.9467 22.0454 29.784 21.808 29.5867 21.6854L29.5813 21.6267V21.6267ZM32.264 20.168C32.144 20.048 32.024 20.0054 31.864 20.0054C31.6667 20.0054 31.4667 20.048 31.3067 20.168C31.1067 20.3307 30.9893 20.568 30.9893 20.808V20.8854L30.624 38.5094L30.8267 41.7494L30.9893 44.9094C30.9893 45.3467 31.384 45.7467 31.864 45.7467C32.3467 45.7467 32.744 45.3467 32.744 44.8694L33.144 38.432L32.744 20.7334C32.744 20.4134 32.5467 20.144 32.304 19.9947L32.264 20.168ZM56.128 30.0667C55.048 30.0667 54.008 30.296 53.0907 30.6854C52.4507 23.608 46.5307 18.056 39.256 18.056C37.4987 18.056 35.776 18.416 34.2187 19.0134C33.6187 19.2534 33.4987 19.4934 33.4587 19.9707V44.952C33.5013 45.432 33.8587 45.832 34.3387 45.872H56.1653C60.4827 45.9147 64 42.4374 64 38.08C64 33.7227 60.4827 30.208 56.1653 30.208" fill="#FF3300"/>
</svg>
