<svg width="64" height="64" viewBox="0 0 64 64" fill="none" xmlns="http://www.w3.org/2000/svg">
<path d="M63.8747 12.1867C61.4786 13.2416 58.9403 13.938 56.3413 14.2533C59.0776 12.6087 61.1264 10.0295 62.1093 6.99201C59.5733 8.47201 56.7627 9.54934 53.7707 10.1493C51.7967 8.03849 49.181 6.63847 46.3297 6.16668C43.4785 5.69489 40.5512 6.17774 38.0025 7.54025C35.4538 8.90276 33.4263 11.0687 32.2348 13.7017C31.0433 16.3347 30.7546 19.2874 31.4133 22.1013C20.5067 21.5867 10.8453 16.3467 4.37333 8.43201C3.19678 10.4315 2.5831 12.7121 2.59733 15.032C2.59733 19.592 4.91733 23.6 8.432 25.9547C6.34896 25.8884 4.31192 25.3252 2.49067 24.312V24.472C2.48949 27.5024 3.53672 30.4398 5.45468 32.786C7.37265 35.1322 10.0432 36.7426 13.0133 37.344C11.0888 37.8597 9.0731 37.9371 7.11467 37.5707C7.95766 40.1787 9.59377 42.4585 11.7947 44.092C13.9956 45.7255 16.6516 46.6312 19.392 46.6827C14.7507 50.3252 9.01994 52.3022 3.12 52.296C2.08 52.296 1.04267 52.2347 0 52.1173C6.01522 55.9689 13.0094 58.0133 20.152 58.008C44.2933 58.008 57.48 38.0187 57.48 20.7147C57.48 20.1547 57.48 19.5947 57.44 19.0347C60.016 17.181 62.2379 14.8795 64 12.24L63.8747 12.1867Z" fill="#1DA1F2"/>
</svg>
