<svg width="64" height="64" viewBox="0 0 64 64" fill="none" xmlns="http://www.w3.org/2000/svg">
<path d="M62.6613 16.496C62.2998 15.134 61.5867 13.891 60.5936 12.8913C59.6005 11.8917 58.3622 11.1705 57.0027 10.8C52.0133 9.45331 32 9.45331 32 9.45331C32 9.45331 11.9867 9.45331 6.99467 10.8C5.63576 11.1711 4.39812 11.8926 3.40554 12.8922C2.41296 13.8918 1.70024 15.1345 1.33867 16.496C0 21.52 0 32 0 32C0 32 0 42.48 1.33867 47.504C1.70023 48.8659 2.41327 50.1089 3.40638 51.1086C4.39949 52.1083 5.63781 52.8295 6.99733 53.2C11.9867 54.5466 32 54.5466 32 54.5466C32 54.5466 52.0133 54.5466 57.0053 53.2C58.365 52.8297 59.6034 52.1086 60.5966 51.1089C61.5897 50.1092 62.3027 48.866 62.664 47.504C64 42.48 64 32 64 32C64 32 64 21.52 62.6613 16.496ZM25.4533 41.5146V22.4853L42.1813 32L25.4533 41.5146Z" fill="#FF0000"/>
</svg>
